<svg xmlns="http://www.w3.org/2000/svg" viewBox="0 0 64 64" width="64" height="64">
  <!-- Bowl body -->
  <path d="M10 30 Q10 52 32 52 Q54 52 54 30 Z" fill="#f59e0b"/>
  <!-- Bowl rim -->
  <rect x="9" y="26" width="46" height="6" rx="3" fill="#fbbf24"/>
  <!-- Bowl inner shadow -->
  <path d="M14 32 Q14 48 32 48 Q50 48 50 32 Z" fill="#fde68a"/>
  <!-- Steam lines -->
  <path d="M24 22 Q22 17 24 12" stroke="#f59e0b" stroke-width="2" stroke-linecap="round" fill="none"/>
  <path d="M32 20 Q30 14 32 8" stroke="#f59e0b" stroke-width="2" stroke-linecap="round" fill="none"/>
  <path d="M40 22 Q38 17 40 12" stroke="#f59e0b" stroke-width="2" stroke-linecap="round" fill="none"/>
  <!-- Noodle swirl on top of food -->
  <path d="M22 36 Q26 32 32 36 Q38 40 42 36" stroke="#d97706" stroke-width="2.5" stroke-linecap="round" fill="none"/>
  <path d="M24 40 Q28 37 32 40 Q36 43 40 40" stroke="#d97706" stroke-width="2" stroke-linecap="round" fill="none"/>
</svg>
